<svg id="Livello_1" data-name="Livello 1" xmlns="http://www.w3.org/2000/svg" width="91.06" height="94.86" viewBox="0 0 91.06 94.86">
  <defs>
    <style>
      .cls-1 {
        fill: #0e9c09;
      }
    </style>
  </defs>
  <title>lente100x100</title>
  <polygon class="cls-1" points="0 89.01 41.6 48.7 6.61 94.86 0 89.01"/>
  <path class="cls-1" d="M96.68,29.26a31.83,31.83,0,0,1-1.9,12.24A31.15,31.15,0,0,1,66.87,62a30.81,30.81,0,0,1-11.82-1.84A30.46,30.46,0,0,1,44.93,54a30,30,0,0,1-9.66-20.79A29.42,29.42,0,0,1,43,12.11,28.88,28.88,0,0,1,63,2.82a28.33,28.33,0,0,1,20.34,7.46,27.82,27.82,0,0,1,8.92,19.27Zm-4.4.29A27.29,27.29,0,0,0,82.63,11.1,26.71,26.71,0,0,0,63.17,5,26.12,26.12,0,0,0,45.48,14.3,25.58,25.58,0,0,0,39.67,33a25.1,25.1,0,0,0,8.9,16.93,24.49,24.49,0,0,0,17.87,5.53A23.9,23.9,0,0,0,82.61,46.9a23.35,23.35,0,0,0,5.26-17.07Z" transform="translate(-5.65 -2.79)"/>
</svg>
