<svg id="Livello_1" data-name="Livello 1" xmlns="http://www.w3.org/2000/svg" width="47.08" height="49.04" viewBox="0 0 47.08 49.04">
  <defs>
    <style>
      .cls-1 {
        fill: #0e9c09;
      }
    </style>
  </defs>
  <title>lente5x50</title>
  <polygon class="cls-1" points="0 46.02 21.51 25.18 3.42 49.04 0 46.02"/>
  <path class="cls-1" d="M49,14.38a16.38,16.38,0,0,1-4.27,11.75,16.14,16.14,0,0,1-11.14,5.19,15.84,15.84,0,0,1-11.34-4.14,15.49,15.49,0,0,1-5-10.75,15.21,15.21,0,0,1,4-10.92A14.94,14.94,0,0,1,31.64.71,14.66,14.66,0,0,1,42.16,4.56a14.4,14.4,0,0,1,4.61,10Zm-2.27.14a14.11,14.11,0,0,0-5-9.53A13.82,13.82,0,0,0,31.72,1.84a13.5,13.5,0,0,0-9.14,4.8,13.22,13.22,0,0,0-3,9.65A13,13,0,0,0,24.17,25a12.65,12.65,0,0,0,9.24,2.86,12.37,12.37,0,0,0,8.36-4.41,12.06,12.06,0,0,0,2.72-8.82Z" transform="translate(-1.98 -0.69)"/>
</svg>
