<?xml version="1.0" standalone="no"?>
<!DOCTYPE svg PUBLIC "-//W3C//DTD SVG 20010904//EN"
 "http://www.w3.org/TR/2001/REC-SVG-20010904/DTD/svg10.dtd">
<svg version="1.0" xmlns="http://www.w3.org/2000/svg"
 width="608.000000pt" height="608.000000pt" viewBox="0 0 608.000000 608.000000"
 preserveAspectRatio="xMidYMid meet">
<metadata>
Created by potrace 1.11, written by Peter Selinger 2001-2013
</metadata>
<g transform="translate(0.000000,608.000000) scale(0.100000,-0.100000)"
fill="#000000" stroke="none">
<path d="M2978 6075 c-1 -1 -65 -6 -141 -9 -76 -3 -141 -7 -145 -10 -4 -2 -34
-7 -67 -10 -91 -11 -101 -12 -232 -40 -157 -33 -307 -86 -458 -162 -371 -185
-633 -499 -840 -1009 -102 -250 -195 -593 -221 -815 -3 -30 -7 -57 -9 -60 -3
-5 -15 -105 -20 -165 -2 -16 -6 -59 -9 -95 -15 -156 -21 -521 -11 -695 2 -38
6 -113 9 -165 3 -52 8 -119 11 -148 3 -28 7 -76 10 -105 11 -104 22 -197 35
-277 5 -36 15 -97 20 -137 6 -39 13 -82 15 -95 5 -21 22 -118 30 -163 1 -11 8
-49 15 -85 6 -36 13 -74 15 -85 3 -23 16 -90 21 -120 5 -23 63 -357 70 -397 2
-16 6 -41 9 -57 3 -16 7 -49 10 -72 3 -24 7 -55 10 -69 2 -14 6 -50 10 -80 4
-30 8 -66 10 -80 2 -14 6 -54 10 -90 3 -36 8 -81 10 -100 2 -19 6 -73 9 -120
14 -218 18 -259 31 -318 20 -85 46 -133 97 -176 132 -113 345 -60 400 101 9
26 20 86 23 133 3 47 8 101 10 120 2 19 7 73 10 120 4 47 8 101 10 120 5 47
15 160 21 240 3 36 7 81 9 100 2 19 6 73 10 120 10 132 12 144 20 170 19 61
110 95 170 62 47 -25 64 -61 81 -170 31 -207 68 -263 176 -268 80 -3 136 27
160 86 6 14 12 122 13 240 1 118 6 235 9 260 9 58 41 130 58 131 7 1 24 3 37
4 54 6 101 -81 152 -277 39 -153 45 -216 54 -541 3 -98 7 -181 9 -185 2 -4 7
-27 10 -52 19 -139 82 -344 123 -398 48 -63 106 -82 173 -55 93 37 122 109
126 308 1 72 5 293 9 492 6 365 8 393 26 449 27 84 122 118 202 71 56 -33 73
-70 81 -173 4 -45 9 -94 11 -108 3 -14 10 -54 15 -89 25 -141 70 -271 119
-337 39 -53 58 -70 107 -91 72 -33 154 -8 225 68 78 81 111 162 124 300 8 85
10 99 24 149 14 51 72 120 108 127 47 9 109 -25 142 -79 49 -77 100 -227 116
-344 3 -25 8 -56 10 -70 2 -14 7 -59 10 -100 14 -187 25 -297 36 -365 32 -205
73 -271 173 -282 146 -17 349 222 401 473 5 22 9 41 10 44 1 6 16 104 21 135
1 11 5 43 9 70 3 28 8 61 10 75 3 14 7 48 10 75 3 28 8 61 10 75 2 14 6 54 10
90 4 36 8 76 10 90 2 14 6 54 10 90 3 36 8 81 10 100 3 19 7 69 10 110 3 41 7
95 10 120 6 60 13 163 20 285 3 55 8 123 10 150 23 297 24 1582 0 1704 -2 11
-6 54 -10 94 -3 40 -7 83 -10 96 -2 13 -7 42 -9 65 -5 36 -12 76 -20 111 -1 6
-8 37 -15 70 -23 112 -106 376 -141 450 -5 11 -27 61 -49 111 -181 419 -464
787 -751 977 -225 149 -480 252 -770 312 -16 3 -134 21 -190 30 -19 2 -89 7
-155 11 -66 3 -125 7 -132 9 -6 2 -13 2 -15 0z"/>
</g>
</svg>
