<?xml version="1.0" standalone="no"?>
<!DOCTYPE svg PUBLIC "-//W3C//DTD SVG 20010904//EN"
 "http://www.w3.org/TR/2001/REC-SVG-20010904/DTD/svg10.dtd">
<svg version="1.0" xmlns="http://www.w3.org/2000/svg"
 width="1806.000000pt" height="1806.000000pt" viewBox="0 0 1806.000000 1806.000000"
 preserveAspectRatio="xMidYMid meet">
<metadata>
Created by potrace 1.11, written by Peter Selinger 2001-2013
</metadata>
<g transform="translate(0.000000,1806.000000) scale(0.100000,-0.100000)"
fill="#000000" stroke="none">
<path d="M8568 17335 c-2 -2 -61 -6 -133 -9 -71 -4 -152 -9 -180 -11 -96 -8
-180 -16 -210 -21 -16 -2 -50 -6 -75 -8 -65 -7 -141 -16 -170 -22 -14 -2 -43
-7 -65 -9 -111 -14 -466 -85 -630 -127 -66 -16 -127 -31 -135 -34 -85 -20
-285 -83 -460 -143 -69 -23 -266 -101 -343 -135 -31 -14 -58 -25 -60 -25 -6 3
-344 -176 -423 -224 -425 -258 -764 -556 -1091 -959 -338 -416 -661 -979 -918
-1598 -28 -69 -55 -134 -60 -145 -4 -11 -9 -22 -10 -25 -1 -3 -5 -12 -8 -20
-22 -52 -142 -388 -180 -505 -59 -180 -152 -501 -182 -625 -21 -86 -76 -319
-79 -335 -2 -11 -11 -54 -20 -95 -9 -41 -18 -93 -22 -115 -3 -22 -8 -43 -10
-46 -2 -3 -6 -21 -9 -40 -3 -19 -15 -83 -25 -144 -11 -60 -22 -126 -25 -145
-3 -19 -7 -46 -10 -60 -5 -25 -9 -57 -20 -135 -2 -22 -8 -56 -11 -75 -3 -19
-8 -51 -10 -70 -3 -19 -11 -87 -19 -150 -8 -63 -17 -144 -20 -180 -3 -36 -8
-81 -10 -100 -2 -19 -6 -62 -9 -95 -3 -33 -8 -85 -11 -115 -2 -30 -7 -95 -10
-145 -3 -49 -7 -117 -10 -150 -27 -358 -27 -1324 0 -1825 9 -154 15 -259 20
-310 2 -30 7 -89 10 -130 8 -110 23 -285 30 -355 2 -22 7 -65 9 -95 12 -120
27 -274 31 -309 9 -73 26 -207 30 -231 2 -14 6 -43 10 -65 3 -22 8 -56 10 -75
2 -19 7 -51 10 -70 3 -19 7 -55 10 -79 3 -23 7 -46 9 -50 2 -3 7 -31 10 -62 4
-31 8 -65 10 -75 2 -11 7 -41 10 -67 4 -27 9 -59 12 -70 2 -12 11 -67 19 -122
17 -110 22 -143 31 -195 4 -19 8 -42 9 -50 2 -18 17 -111 21 -125 1 -5 5 -28
8 -50 4 -22 11 -66 17 -97 12 -71 14 -81 34 -193 8 -49 17 -102 20 -117 3 -16
7 -39 9 -53 3 -14 10 -52 16 -85 6 -33 13 -72 16 -87 3 -16 13 -75 24 -133 11
-58 22 -118 25 -135 2 -16 7 -41 10 -55 3 -14 9 -50 15 -80 5 -30 12 -68 15
-85 5 -29 30 -165 39 -215 2 -14 13 -77 25 -140 11 -63 23 -132 27 -154 3 -21
8 -48 10 -60 2 -11 7 -34 10 -51 2 -16 7 -43 10 -60 3 -16 7 -41 9 -55 2 -14
13 -81 25 -150 11 -69 23 -138 25 -155 2 -16 7 -48 10 -70 23 -146 35 -226 41
-270 3 -27 7 -57 9 -65 1 -8 6 -40 10 -70 4 -30 9 -63 11 -74 2 -10 6 -44 10
-75 3 -31 7 -63 9 -71 1 -8 6 -44 10 -80 4 -36 9 -73 11 -83 2 -10 6 -48 9
-85 3 -37 8 -78 10 -92 3 -14 7 -54 10 -90 4 -36 8 -76 10 -90 2 -14 7 -63 10
-110 4 -47 9 -92 10 -100 3 -15 12 -119 20 -235 3 -33 7 -87 10 -120 3 -33 8
-94 10 -135 2 -41 6 -113 10 -160 3 -47 8 -124 10 -172 4 -79 6 -112 21 -243
24 -224 104 -459 195 -578 100 -130 255 -230 404 -261 80 -17 215 -19 277 -4
24 5 51 11 61 13 109 23 271 122 355 219 29 34 68 93 87 131 60 121 68 169
100 600 3 39 8 88 10 110 3 22 7 69 10 105 13 169 16 208 20 245 6 65 15 165
20 235 3 36 7 81 9 100 3 19 8 76 11 125 4 50 8 104 10 120 2 17 6 64 10 105
3 41 8 95 10 120 2 25 7 79 10 120 3 41 8 95 10 120 2 25 7 77 10 115 3 39 8
86 10 105 2 19 7 79 10 133 4 54 8 106 10 115 1 9 6 53 9 97 4 44 9 103 11
130 9 101 17 191 21 247 2 32 8 78 14 103 52 234 385 316 575 143 66 -59 95
-160 160 -553 55 -333 96 -431 216 -520 184 -135 475 -111 617 50 43 48 78
115 86 162 18 97 19 176 16 798 -1 160 1 306 4 325 3 19 7 64 11 100 21 234
70 381 148 444 36 29 45 31 115 31 62 0 84 -4 112 -22 46 -29 82 -62 101 -93
61 -99 236 -657 274 -875 3 -16 8 -37 10 -45 2 -8 6 -31 9 -50 3 -19 8 -44 10
-56 2 -12 7 -45 11 -74 4 -29 8 -60 10 -69 1 -9 6 -50 9 -91 4 -41 9 -88 11
-105 4 -31 11 -311 20 -740 3 -137 7 -266 9 -285 3 -19 7 -72 11 -117 3 -45 7
-90 9 -100 2 -10 7 -43 10 -74 4 -31 8 -65 10 -75 2 -11 9 -53 16 -94 15 -96
66 -329 79 -364 6 -14 9 -26 6 -26 -2 0 0 -12 5 -27 5 -16 18 -62 30 -103 103
-359 164 -494 269 -599 195 -194 500 -139 656 119 86 141 105 263 110 694 4
310 13 776 20 1061 2 77 7 307 10 510 14 824 11 778 46 914 37 146 112 253
211 299 58 27 88 33 163 33 216 -1 408 -175 421 -382 7 -121 29 -343 39 -414
2 -16 7 -52 10 -80 3 -27 10 -72 15 -100 12 -62 17 -94 30 -170 8 -50 81 -346
93 -380 2 -5 7 -23 12 -40 14 -56 95 -253 131 -322 107 -201 231 -328 383
-392 68 -29 188 -38 262 -21 206 48 440 263 571 525 34 67 72 173 82 225 25
132 29 160 41 315 3 39 8 86 10 105 3 19 7 54 10 77 31 259 154 492 290 549
132 55 315 -8 418 -146 83 -109 203 -381 263 -595 45 -161 100 -453 119 -625
3 -30 8 -71 10 -90 2 -19 7 -66 10 -105 3 -38 8 -88 10 -110 3 -22 7 -76 10
-120 6 -90 13 -187 20 -255 3 -25 7 -81 11 -125 3 -44 7 -91 9 -105 2 -14 7
-59 10 -100 4 -41 8 -82 10 -90 1 -8 6 -40 10 -70 15 -122 38 -250 67 -370 11
-47 21 -92 23 -100 17 -78 66 -187 111 -246 51 -67 89 -98 161 -131 50 -23 72
-27 163 -27 114 -1 128 1 210 34 160 63 433 328 565 548 203 339 316 684 370
1131 4 30 8 61 10 70 2 15 16 108 20 141 10 79 17 129 20 150 2 14 7 49 10 79
4 30 8 61 10 70 1 9 6 45 9 81 4 36 11 90 16 120 5 30 12 82 15 115 4 33 8 74
10 90 2 17 6 55 10 85 3 30 8 66 10 80 2 14 6 54 10 90 4 36 8 76 10 90 5 35
16 137 21 189 2 24 6 60 8 80 3 20 8 63 11 96 3 33 8 78 11 99 3 22 7 62 9 90
2 28 6 76 9 106 3 30 8 82 11 115 3 33 7 80 10 105 8 83 17 187 30 340 3 41 8
95 10 120 2 25 7 83 10 130 3 47 7 110 10 140 6 69 14 172 20 275 3 44 7 114
10 155 22 312 45 768 60 1200 4 102 8 230 10 285 22 614 22 1629 0 2690 -11
536 -31 934 -60 1208 -20 191 -40 351 -49 405 -2 10 -7 39 -10 65 -4 27 -9 57
-11 67 -2 9 -6 35 -10 56 -12 82 -16 103 -46 244 -17 80 -33 156 -35 169 -7
36 -80 318 -103 398 -48 166 -74 247 -153 473 -72 207 -178 475 -249 629 -16
35 -39 87 -51 115 -27 62 -211 431 -271 541 -118 219 -271 468 -428 702 -89
132 -324 440 -399 524 -8 9 -44 50 -79 90 -100 114 -354 365 -471 465 -448
382 -1031 704 -1685 930 -177 61 -555 168 -670 188 -16 3 -39 8 -50 10 -71 17
-167 36 -205 41 -24 4 -47 8 -50 10 -3 1 -25 6 -50 9 -25 3 -54 8 -65 10 -29
5 -93 15 -145 21 -25 3 -56 8 -70 10 -14 3 -54 7 -90 10 -36 3 -81 7 -100 10
-37 4 -148 14 -240 21 -64 5 -728 13 -732 9z"/>
</g>
</svg>
